<svg width="1440" height="744" viewBox="0 0 1440 744" fill="none" xmlns="http://www.w3.org/2000/svg">
<path opacity="0.2" d="M0 0H1440V327H0V0Z" fill="url(#paint0_linear_1_2)"/>
<g clip-path="url(#clip0_1_2)">
<g opacity="0.3">
<path d="M50.0219 186.916L56.5539 180.864L72.7978 198.386L55.4287 214.477L49.3662 207.938L60.2033 197.898L50.0219 186.916Z" fill="white"/>
<path d="M27.3264 186.403L33.809 180.397L50.0531 197.919L32.7333 213.964L26.6244 207.374L37.4617 197.335L27.3264 186.403Z" fill="white"/>
<path d="M4.58088 185.934L11.1127 179.883L27.3101 197.355L9.94128 213.447L3.87884 206.907L14.7158 196.867L4.58088 185.934Z" fill="white"/>
<path d="M-18.1617 185.37L-11.6297 179.319L4.61421 196.841L-12.7549 212.932L-18.8637 206.343L-8.02657 196.303L-18.1617 185.37Z" fill="white"/>
</g>
</g>
<g opacity="0.2" clip-path="url(#clip1_1_2)">
<path d="M1341.57 137C1282.66 137 1235 184.658 1235 243.573C1235 302.342 1282.66 350.146 1341.57 350.146C1400.34 350.146 1448.15 302.488 1448.15 243.573C1448 184.658 1400.34 137 1341.57 137ZM1341.57 343.275C1286.46 343.275 1241.87 298.687 1241.87 243.573C1241.87 188.459 1286.46 143.871 1341.57 143.871C1396.69 143.871 1441.28 188.459 1441.28 243.573C1441.28 298.541 1396.54 343.275 1341.57 343.275Z" fill="white"/>
<path d="M1341.57 159.952C1295.52 159.952 1258.1 197.377 1258.1 243.427C1258.1 289.477 1295.52 326.902 1341.57 326.902C1387.62 326.902 1425.05 289.623 1425.05 243.573C1425.05 197.377 1387.62 159.952 1341.57 159.952ZM1341.57 314.183C1302.54 314.183 1270.82 282.46 1270.82 243.427C1270.82 204.394 1302.54 172.671 1341.57 172.671C1380.61 172.671 1412.33 204.394 1412.33 243.427C1412.33 282.46 1380.61 314.183 1341.57 314.183Z" fill="white"/>
<path d="M1341.57 196.646C1315.7 196.646 1294.65 217.697 1294.65 243.573C1294.65 269.449 1315.55 290.5 1341.57 290.5C1367.45 290.5 1388.5 269.449 1388.5 243.573C1388.35 217.697 1367.45 196.646 1341.57 196.646ZM1341.57 268.718C1327.69 268.718 1316.43 257.461 1316.43 243.573C1316.43 229.685 1327.69 218.428 1341.57 218.428C1355.46 218.428 1366.72 229.685 1366.72 243.573C1366.72 257.461 1355.46 268.718 1341.57 268.718Z" fill="white"/>
</g>
<g opacity="0.8" clip-path="url(#clip2_1_2)">
<path d="M54.0017 671.198C54.0017 672.338 53.1442 673.193 52.0008 673.193C50.8575 673.193 50 672.338 50 671.198C50 670.059 50.8575 669.204 52.0008 669.204C53.1442 669.204 54.0017 670.154 54.0017 671.198Z" fill="#BAF0D9"/>
<path d="M71.0564 671.198C71.0564 672.338 70.1989 673.193 69.0555 673.193C67.9122 673.193 67.0547 672.338 67.0547 671.198C67.0547 670.059 67.9122 669.204 69.0555 669.204C70.1036 669.204 71.0564 670.154 71.0564 671.198Z" fill="#BAF0D9"/>
<path d="M88.0163 671.198C88.0163 672.338 87.1588 673.193 86.0155 673.193C84.8722 673.193 84.0146 672.338 84.0146 671.198C84.0146 670.059 84.8722 669.204 86.0155 669.204C87.1588 669.204 88.0163 670.154 88.0163 671.198Z" fill="#BAF0D9"/>
<path d="M105.071 671.198C105.071 672.338 104.214 673.193 103.07 673.193C101.927 673.193 101.069 672.338 101.069 671.198C101.069 670.059 101.927 669.204 103.07 669.204C104.214 669.204 105.071 670.154 105.071 671.198Z" fill="#BAF0D9"/>
<path d="M122.126 671.198C122.126 672.338 121.268 673.193 120.125 673.193C118.982 673.193 118.124 672.338 118.124 671.198C118.124 670.059 118.982 669.204 120.125 669.204C121.173 669.204 122.126 670.154 122.126 671.198Z" fill="#BAF0D9"/>
<path d="M139.181 671.198C139.181 672.338 138.324 673.193 137.181 673.193C136.037 673.193 135.18 672.338 135.18 671.198C135.18 670.059 136.037 669.204 137.181 669.204C138.324 669.204 139.181 670.154 139.181 671.198Z" fill="#BAF0D9"/>
<path d="M156.14 671.198C156.14 672.338 155.283 673.193 154.14 673.193C152.996 673.193 152.139 672.338 152.139 671.198C152.139 670.059 152.996 669.204 154.14 669.204C155.283 669.204 156.14 670.154 156.14 671.198Z" fill="#BAF0D9"/>
<path d="M173.195 671.198C173.195 672.338 172.338 673.193 171.194 673.193C170.051 673.193 169.193 672.338 169.193 671.198C169.193 670.059 170.051 669.204 171.194 669.204C172.338 669.204 173.195 670.154 173.195 671.198Z" fill="#BAF0D9"/>
<path d="M190.25 671.198C190.25 672.338 189.392 673.193 188.249 673.193C187.106 673.193 186.248 672.338 186.248 671.198C186.248 670.059 187.106 669.204 188.249 669.204C189.297 669.204 190.25 670.154 190.25 671.198Z" fill="#BAF0D9"/>
<path d="M54.0017 685.348C54.0017 686.487 53.1442 687.342 52.0008 687.342C50.8575 687.342 50 686.487 50 685.348C50 684.208 50.8575 683.354 52.0008 683.354C53.1442 683.354 54.0017 684.208 54.0017 685.348Z" fill="#BAF0D9"/>
<path d="M71.0564 685.348C71.0564 686.487 70.1989 687.342 69.0555 687.342C67.9122 687.342 67.0547 686.487 67.0547 685.348C67.0547 684.208 67.9122 683.354 69.0555 683.354C70.1036 683.354 71.0564 684.208 71.0564 685.348Z" fill="#BAF0D9"/>
<path d="M88.0163 685.348C88.0163 686.487 87.1588 687.342 86.0155 687.342C84.8722 687.342 84.0146 686.487 84.0146 685.348C84.0146 684.208 84.8722 683.354 86.0155 683.354C87.1588 683.354 88.0163 684.208 88.0163 685.348Z" fill="#BAF0D9"/>
<path d="M105.071 685.348C105.071 686.487 104.214 687.342 103.07 687.342C101.927 687.342 101.069 686.487 101.069 685.348C101.069 684.208 101.927 683.354 103.07 683.354C104.214 683.354 105.071 684.208 105.071 685.348Z" fill="#BAF0D9"/>
<path d="M122.126 685.348C122.126 686.487 121.268 687.342 120.125 687.342C118.982 687.342 118.124 686.487 118.124 685.348C118.124 684.208 118.982 683.354 120.125 683.354C121.173 683.354 122.126 684.208 122.126 685.348Z" fill="#BAF0D9"/>
<path d="M139.181 685.348C139.181 686.487 138.324 687.342 137.181 687.342C136.037 687.342 135.18 686.487 135.18 685.348C135.18 684.208 136.037 683.354 137.181 683.354C138.324 683.354 139.181 684.208 139.181 685.348Z" fill="#BAF0D9"/>
<path d="M156.14 685.348C156.14 686.487 155.283 687.342 154.14 687.342C152.996 687.342 152.139 686.487 152.139 685.348C152.139 684.208 152.996 683.354 154.14 683.354C155.283 683.354 156.14 684.208 156.14 685.348Z" fill="#BAF0D9"/>
<path d="M173.195 685.348C173.195 686.487 172.338 687.342 171.194 687.342C170.051 687.342 169.193 686.487 169.193 685.348C169.193 684.208 170.051 683.354 171.194 683.354C172.338 683.354 173.195 684.208 173.195 685.348Z" fill="#BAF0D9"/>
<path d="M190.25 685.348C190.25 686.487 189.392 687.342 188.249 687.342C187.106 687.342 186.248 686.487 186.248 685.348C186.248 684.208 187.106 683.354 188.249 683.354C189.297 683.354 190.25 684.208 190.25 685.348Z" fill="#BAF0D9"/>
<path d="M54.0017 642.994C54.0017 644.134 53.1442 644.988 52.0008 644.988C50.8575 644.988 50 644.134 50 642.994C50 641.855 50.8575 641 52.0008 641C53.1442 641 54.0017 641.855 54.0017 642.994Z" fill="#BAF0D9"/>
<path d="M71.0564 642.994C71.0564 644.134 70.1989 644.988 69.0555 644.988C67.9122 644.988 67.0547 644.134 67.0547 642.994C67.0547 641.855 67.9122 641 69.0555 641C70.1036 641 71.0564 641.855 71.0564 642.994Z" fill="#BAF0D9"/>
<path d="M88.0163 642.994C88.0163 644.134 87.1588 644.988 86.0155 644.988C84.8722 644.988 84.0146 644.134 84.0146 642.994C84.0146 641.855 84.9674 641 86.0155 641C87.1588 641 88.0163 641.855 88.0163 642.994Z" fill="#BAF0D9"/>
<path d="M105.071 642.994C105.071 644.134 104.214 644.988 103.07 644.988C101.927 644.988 101.069 644.134 101.069 642.994C101.069 641.855 102.022 641 103.07 641C104.118 641 105.071 641.855 105.071 642.994Z" fill="#BAF0D9"/>
<path d="M122.126 642.994C122.126 644.134 121.268 644.988 120.125 644.988C118.982 644.988 118.124 644.134 118.124 642.994C118.124 641.855 118.982 641 120.125 641C121.173 641 122.126 641.855 122.126 642.994Z" fill="#BAF0D9"/>
<path d="M139.181 642.994C139.181 644.134 138.324 644.988 137.181 644.988C136.037 644.988 135.18 644.134 135.18 642.994C135.18 641.855 136.037 641 137.181 641C138.324 641 139.181 641.855 139.181 642.994Z" fill="#BAF0D9"/>
<path d="M156.14 642.994C156.14 644.134 155.283 644.988 154.14 644.988C152.996 644.988 152.139 644.134 152.139 642.994C152.139 641.855 152.996 641 154.14 641C155.283 641 156.14 641.855 156.14 642.994Z" fill="#BAF0D9"/>
<path d="M173.195 642.994C173.195 644.134 172.338 644.988 171.194 644.988C170.051 644.988 169.193 644.134 169.193 642.994C169.193 641.855 170.051 641 171.194 641C172.338 641 173.195 641.855 173.195 642.994Z" fill="#BAF0D9"/>
<path d="M190.25 642.994C190.25 644.134 189.392 644.988 188.249 644.988C187.106 644.988 186.248 644.134 186.248 642.994C186.248 641.855 187.106 641 188.249 641C189.297 641 190.25 641.855 190.25 642.994Z" fill="#BAF0D9"/>
<path d="M54.0017 657.144C54.0017 658.283 53.1442 659.138 52.0008 659.138C50.8575 659.138 50 658.188 50 657.144C50 656.004 50.8575 655.15 52.0008 655.15C53.1442 655.15 54.0017 656.004 54.0017 657.144Z" fill="#BAF0D9"/>
<path d="M71.0564 657.144C71.0564 658.283 70.1989 659.138 69.0555 659.138C67.9122 659.138 67.0547 658.283 67.0547 657.144C67.0547 656.004 67.9122 655.15 69.0555 655.15C70.1036 655.15 71.0564 656.004 71.0564 657.144Z" fill="#BAF0D9"/>
<path d="M88.0163 657.144C88.0163 658.283 87.1588 659.138 86.0155 659.138C84.8722 659.138 84.0146 658.283 84.0146 657.144C84.0146 656.004 84.8722 655.15 86.0155 655.15C87.1588 655.15 88.0163 656.004 88.0163 657.144Z" fill="#BAF0D9"/>
<path d="M105.071 657.144C105.071 658.283 104.214 659.138 103.07 659.138C101.927 659.138 101.069 658.283 101.069 657.144C101.069 656.004 101.927 655.15 103.07 655.15C104.214 655.15 105.071 656.004 105.071 657.144Z" fill="#BAF0D9"/>
<path d="M122.126 657.144C122.126 658.283 121.268 659.138 120.125 659.138C118.982 659.138 118.124 658.283 118.124 657.144C118.124 656.004 118.982 655.15 120.125 655.15C121.173 655.15 122.126 656.004 122.126 657.144Z" fill="#BAF0D9"/>
<path d="M139.181 657.144C139.181 658.283 138.324 659.138 137.181 659.138C136.037 659.138 135.18 658.283 135.18 657.144C135.18 656.004 136.037 655.15 137.181 655.15C138.324 655.15 139.181 656.004 139.181 657.144Z" fill="#BAF0D9"/>
<path d="M156.14 657.144C156.14 658.283 155.283 659.138 154.14 659.138C152.996 659.138 152.139 658.283 152.139 657.144C152.139 656.004 152.996 655.15 154.14 655.15C155.283 655.15 156.14 656.004 156.14 657.144Z" fill="#BAF0D9"/>
<path d="M173.195 657.144C173.195 658.283 172.338 659.138 171.194 659.138C170.051 659.138 169.193 658.283 169.193 657.144C169.193 656.004 170.051 655.15 171.194 655.15C172.338 655.15 173.195 656.004 173.195 657.144Z" fill="#BAF0D9"/>
<path d="M190.25 657.144C190.25 658.283 189.392 659.138 188.249 659.138C187.106 659.138 186.248 658.283 186.248 657.144C186.248 656.004 187.106 655.15 188.249 655.15C189.297 655.15 190.25 656.004 190.25 657.144Z" fill="#BAF0D9"/>
<path d="M54.0017 699.402C54.0017 700.542 53.1442 701.397 52.0008 701.397C50.8575 701.397 50 700.542 50 699.402C50 698.263 50.8575 697.408 52.0008 697.408C53.1442 697.408 54.0017 698.358 54.0017 699.402Z" fill="#BAF0D9"/>
<path d="M71.0564 699.402C71.0564 700.542 70.1989 701.397 69.0555 701.397C67.9122 701.397 67.0547 700.542 67.0547 699.402C67.0547 698.263 67.9122 697.408 69.0555 697.408C70.1036 697.408 71.0564 698.358 71.0564 699.402Z" fill="#BAF0D9"/>
<path d="M88.0163 699.402C88.0163 700.542 87.1588 701.397 86.0155 701.397C84.8722 701.397 84.0146 700.542 84.0146 699.402C84.0146 698.263 84.8722 697.408 86.0155 697.408C87.1588 697.408 88.0163 698.358 88.0163 699.402Z" fill="#BAF0D9"/>
<path d="M105.071 699.402C105.071 700.542 104.214 701.397 103.07 701.397C101.927 701.397 101.069 700.542 101.069 699.402C101.069 698.263 101.927 697.408 103.07 697.408C104.214 697.408 105.071 698.358 105.071 699.402Z" fill="#BAF0D9"/>
<path d="M122.126 699.402C122.126 700.542 121.268 701.397 120.125 701.397C118.982 701.397 118.124 700.542 118.124 699.402C118.124 698.263 118.982 697.408 120.125 697.408C121.173 697.408 122.126 698.358 122.126 699.402Z" fill="#BAF0D9"/>
<path d="M139.181 699.402C139.181 700.542 138.324 701.397 137.181 701.397C136.037 701.397 135.18 700.542 135.18 699.402C135.18 698.263 136.037 697.408 137.181 697.408C138.324 697.408 139.181 698.358 139.181 699.402Z" fill="#BAF0D9"/>
<path d="M156.14 699.402C156.14 700.542 155.283 701.397 154.14 701.397C152.996 701.397 152.139 700.542 152.139 699.402C152.139 698.263 152.996 697.408 154.14 697.408C155.283 697.408 156.14 698.358 156.14 699.402Z" fill="#BAF0D9"/>
<path d="M173.195 699.402C173.195 700.542 172.338 701.397 171.194 701.397C170.051 701.397 169.193 700.542 169.193 699.402C169.193 698.263 170.051 697.408 171.194 697.408C172.338 697.408 173.195 698.358 173.195 699.402Z" fill="#BAF0D9"/>
<path d="M190.25 699.402C190.25 700.542 189.392 701.397 188.249 701.397C187.106 701.397 186.248 700.542 186.248 699.402C186.248 698.263 187.106 697.408 188.249 697.408C189.297 697.408 190.25 698.358 190.25 699.402Z" fill="#BAF0D9"/>
<path d="M54.0017 713.552C54.0017 714.691 53.1442 715.546 52.0008 715.546C50.8575 715.546 50 714.691 50 713.552C50 712.412 50.8575 711.558 52.0008 711.558C53.1442 711.558 54.0017 712.412 54.0017 713.552Z" fill="#BAF0D9"/>
<path d="M71.0564 713.552C71.0564 714.691 70.1989 715.546 69.0555 715.546C67.9122 715.546 67.0547 714.691 67.0547 713.552C67.0547 712.412 67.9122 711.558 69.0555 711.558C70.1036 711.558 71.0564 712.412 71.0564 713.552Z" fill="#BAF0D9"/>
<path d="M88.0163 713.552C88.0163 714.691 87.1588 715.546 86.0155 715.546C84.8722 715.546 84.0146 714.691 84.0146 713.552C84.0146 712.412 84.8722 711.558 86.0155 711.558C87.1588 711.558 88.0163 712.412 88.0163 713.552Z" fill="#BAF0D9"/>
<path d="M103.07 715.546C104.175 715.546 105.071 714.653 105.071 713.552C105.071 712.45 104.175 711.558 103.07 711.558C101.965 711.558 101.069 712.45 101.069 713.552C101.069 714.653 101.965 715.546 103.07 715.546Z" fill="#BAF0D9"/>
<path d="M122.126 713.552C122.126 714.691 121.268 715.546 120.125 715.546C118.982 715.546 118.124 714.691 118.124 713.552C118.124 712.412 118.982 711.558 120.125 711.558C121.173 711.558 122.126 712.412 122.126 713.552Z" fill="#BAF0D9"/>
<path d="M139.181 713.552C139.181 714.691 138.324 715.546 137.181 715.546C136.037 715.546 135.18 714.691 135.18 713.552C135.18 712.412 136.037 711.558 137.181 711.558C138.324 711.558 139.181 712.412 139.181 713.552Z" fill="#BAF0D9"/>
<path d="M156.14 713.552C156.14 714.691 155.283 715.546 154.14 715.546C152.996 715.546 152.139 714.691 152.139 713.552C152.139 712.412 152.996 711.558 154.14 711.558C155.283 711.558 156.14 712.412 156.14 713.552Z" fill="#BAF0D9"/>
<path d="M171.194 715.546C172.299 715.546 173.195 714.653 173.195 713.552C173.195 712.45 172.299 711.558 171.194 711.558C170.089 711.558 169.193 712.45 169.193 713.552C169.193 714.653 170.089 715.546 171.194 715.546Z" fill="#BAF0D9"/>
<path d="M190.25 713.552C190.25 714.691 189.392 715.546 188.249 715.546C187.106 715.546 186.248 714.691 186.248 713.552C186.248 712.412 187.106 711.558 188.249 711.558C189.297 711.558 190.25 712.412 190.25 713.552Z" fill="#BAF0D9"/>
<path d="M54.0017 727.701C54.0017 728.841 53.1442 729.695 52.0008 729.695C50.8575 729.695 50 728.841 50 727.701C50 726.562 50.8575 725.707 52.0008 725.707C53.1442 725.707 54.0017 726.562 54.0017 727.701Z" fill="#BAF0D9"/>
<path d="M71.0564 727.701C71.0564 728.841 70.1989 729.695 69.0555 729.695C67.9122 729.695 67.0547 728.841 67.0547 727.701C67.0547 726.562 67.9122 725.707 69.0555 725.707C70.1036 725.707 71.0564 726.562 71.0564 727.701Z" fill="#BAF0D9"/>
<path d="M88.0163 727.701C88.0163 728.841 87.1588 729.695 86.0155 729.695C84.8722 729.695 84.0146 728.841 84.0146 727.701C84.0146 726.562 84.8722 725.707 86.0155 725.707C87.1588 725.707 88.0163 726.562 88.0163 727.701Z" fill="#BAF0D9"/>
<path d="M105.071 727.701C105.071 728.841 104.214 729.695 103.07 729.695C101.927 729.695 101.069 728.841 101.069 727.701C101.069 726.562 101.927 725.707 103.07 725.707C104.214 725.707 105.071 726.562 105.071 727.701Z" fill="#BAF0D9"/>
<path d="M122.126 727.701C122.126 728.841 121.268 729.695 120.125 729.695C118.982 729.695 118.124 728.841 118.124 727.701C118.124 726.562 118.982 725.707 120.125 725.707C121.173 725.707 122.126 726.562 122.126 727.701Z" fill="#BAF0D9"/>
<path d="M139.181 727.701C139.181 728.841 138.324 729.695 137.181 729.695C136.037 729.695 135.18 728.841 135.18 727.701C135.18 726.562 136.037 725.707 137.181 725.707C138.324 725.707 139.181 726.562 139.181 727.701Z" fill="#BAF0D9"/>
<path d="M156.14 727.701C156.14 728.841 155.283 729.695 154.14 729.695C152.996 729.695 152.139 728.841 152.139 727.701C152.139 726.562 152.996 725.707 154.14 725.707C155.283 725.707 156.14 726.562 156.14 727.701Z" fill="#BAF0D9"/>
<path d="M173.195 727.701C173.195 728.841 172.338 729.695 171.194 729.695C170.051 729.695 169.193 728.841 169.193 727.701C169.193 726.562 170.051 725.707 171.194 725.707C172.338 725.707 173.195 726.562 173.195 727.701Z" fill="#BAF0D9"/>
<path d="M190.25 727.701C190.25 728.841 189.392 729.695 188.249 729.695C187.106 729.695 186.248 728.841 186.248 727.701C186.248 726.562 187.106 725.707 188.249 725.707C189.297 725.707 190.25 726.562 190.25 727.701Z" fill="#BAF0D9"/>
<path d="M54.0017 741.756C54.0017 742.896 53.1442 743.75 52.0008 743.75C50.8575 743.75 50 742.896 50 741.756C50 740.616 50.8575 739.762 52.0008 739.762C53.1442 739.762 54.0017 740.711 54.0017 741.756Z" fill="#BAF0D9"/>
<path d="M71.0564 741.756C71.0564 742.896 70.1989 743.75 69.0555 743.75C67.9122 743.75 67.0547 742.896 67.0547 741.756C67.0547 740.616 67.9122 739.762 69.0555 739.762C70.1036 739.762 71.0564 740.711 71.0564 741.756Z" fill="#BAF0D9"/>
<path d="M88.0163 741.756C88.0163 742.896 87.1588 743.75 86.0155 743.75C84.8722 743.75 84.0146 742.896 84.0146 741.756C84.0146 740.616 84.8722 739.762 86.0155 739.762C87.1588 739.762 88.0163 740.711 88.0163 741.756Z" fill="#BAF0D9"/>
<path d="M105.071 741.756C105.071 742.896 104.214 743.75 103.07 743.75C101.927 743.75 101.069 742.896 101.069 741.756C101.069 740.616 101.927 739.762 103.07 739.762C104.214 739.762 105.071 740.711 105.071 741.756Z" fill="#BAF0D9"/>
<path d="M122.126 741.756C122.126 742.896 121.268 743.75 120.125 743.75C118.982 743.75 118.124 742.896 118.124 741.756C118.124 740.616 118.982 739.762 120.125 739.762C121.173 739.762 122.126 740.711 122.126 741.756Z" fill="#BAF0D9"/>
<path d="M139.181 741.756C139.181 742.896 138.324 743.75 137.181 743.75C136.037 743.75 135.18 742.896 135.18 741.756C135.18 740.616 136.037 739.762 137.181 739.762C138.324 739.762 139.181 740.711 139.181 741.756Z" fill="#BAF0D9"/>
<path d="M156.14 741.756C156.14 742.896 155.283 743.75 154.14 743.75C152.996 743.75 152.139 742.896 152.139 741.756C152.139 740.616 152.996 739.762 154.14 739.762C155.283 739.762 156.14 740.711 156.14 741.756Z" fill="#BAF0D9"/>
<path d="M173.195 741.756C173.195 742.896 172.338 743.75 171.194 743.75C170.051 743.75 169.193 742.896 169.193 741.756C169.193 740.616 170.051 739.762 171.194 739.762C172.338 739.762 173.195 740.711 173.195 741.756Z" fill="#BAF0D9"/>
<path d="M190.25 741.756C190.25 742.896 189.392 743.75 188.249 743.75C187.106 743.75 186.248 742.896 186.248 741.756C186.248 740.616 187.106 739.762 188.249 739.762C189.297 739.762 190.25 740.711 190.25 741.756Z" fill="#BAF0D9"/>
</g>
<defs>
<linearGradient id="paint0_linear_1_2" x1="-5.36442e-05" y1="327" x2="244.814" y2="-401.593" gradientUnits="userSpaceOnUse">
<stop stop-color="#47DC13"/>
<stop offset="1" stop-color="#00A51A"/>
</linearGradient>
<clipPath id="clip0_1_2">
<rect width="1440" height="327" fill="white"/>
</clipPath>
<clipPath id="clip1_1_2">
<rect width="213" height="213" fill="white" transform="translate(1235 137)"/>
</clipPath>
<clipPath id="clip2_1_2">
<rect width="140.25" height="102.75" fill="white" transform="translate(50 641)"/>
</clipPath>
</defs>
</svg>
