<svg width="81" height="80" viewBox="0 0 81 80" fill="none" xmlns="http://www.w3.org/2000/svg">
<rect x="1.29535" y="1.29553" width="48.1846" height="49.2232" rx="7.34029" fill="#F3FFF1" stroke="#36B37E" stroke-width="2.59069"/>
<rect x="30.2246" y="28.0659" width="50.7753" height="51.8138" rx="8.63564" fill="#E24C3F"/>
<path d="M43.0641 54.9696C43.919 54.9696 44.5343 54.7656 44.91 54.3576C45.2856 53.9496 45.4734 53.3796 45.4734 52.6477C45.4734 52.3239 45.4249 52.0292 45.3277 51.7637C45.2306 51.4981 45.0816 51.2714 44.8808 51.0836C44.6865 50.8893 44.4372 50.7403 44.1328 50.6367C43.8348 50.5331 43.4786 50.4813 43.0641 50.4813H41.3542V54.9696H43.0641ZM43.0641 48.0233C44.0615 48.0233 44.9164 48.1432 45.6289 48.3828C46.3478 48.616 46.9372 48.9398 47.397 49.3543C47.8634 49.7688 48.2066 50.2578 48.4268 50.8213C48.647 51.3848 48.7571 51.9936 48.7571 52.6477C48.7571 53.3537 48.6438 54.0014 48.4171 54.5908C48.1904 55.1801 47.8439 55.6853 47.3776 56.1063C46.9113 56.5273 46.3187 56.8576 45.5997 57.0973C44.8873 57.3304 44.0421 57.447 43.0641 57.447H41.3542V62.1782H38.0705V48.0233H43.0641ZM63.2665 55.0959C63.2665 56.1193 63.0884 57.0649 62.7322 57.9327C62.3824 58.7942 61.887 59.5422 61.2458 60.1769C60.6046 60.8052 59.8306 61.2974 58.9238 61.6536C58.0236 62.0034 57.0229 62.1782 55.9219 62.1782H50.4231V48.0233H55.9219C57.0229 48.0233 58.0236 48.2015 58.9238 48.5577C59.8306 48.9139 60.6046 49.4061 61.2458 50.0344C61.887 50.6626 62.3824 51.4107 62.7322 52.2786C63.0884 53.14 63.2665 54.0791 63.2665 55.0959ZM59.9051 55.0959C59.9051 54.3965 59.8144 53.765 59.633 53.2015C59.4517 52.638 59.1894 52.162 58.8461 51.7734C58.5093 51.3783 58.0948 51.0771 57.6026 50.8699C57.1104 50.6561 56.5501 50.5493 55.9219 50.5493H53.7263V59.6523H55.9219C56.5501 59.6523 57.1104 59.5487 57.6026 59.3414C58.0948 59.1277 58.5093 58.8265 58.8461 58.4379C59.1894 58.0429 59.4517 57.5636 59.633 57.0001C59.8144 56.4366 59.9051 55.8019 59.9051 55.0959ZM68.5076 50.5493V54.1341H73.3458V56.6698H68.5076V62.1782H65.2045V48.0233H74.3173V50.5493H68.5076Z" fill="white"/>
<path d="M22.8064 27.7947H19.8875C19.6975 27.7947 19.5421 27.7487 19.4212 27.6566C19.3061 27.5645 19.2139 27.4551 19.1449 27.3284L16.6232 22.9242C16.5772 23.0509 16.5254 23.1603 16.4678 23.2524L14.1189 27.3284C14.0383 27.4436 13.9433 27.5501 13.8339 27.6479C13.7246 27.7458 13.5835 27.7947 13.4108 27.7947H10.6819L14.732 21.318L10.8374 15.2126H13.7562C13.9462 15.2126 14.0844 15.2385 14.1707 15.2903C14.2628 15.3364 14.3434 15.417 14.4125 15.5321L16.9169 19.7722C16.9456 19.6974 16.9773 19.6254 17.0119 19.5563C17.0522 19.4873 17.0953 19.4153 17.1414 19.3405L19.3348 15.5753C19.4154 15.4487 19.4989 15.3565 19.5853 15.299C19.6774 15.2414 19.7896 15.2126 19.9221 15.2126H22.72L18.7735 21.1971L22.8064 27.7947ZM31.5185 25.4631V27.7947H23.9364V15.2126H26.8553V25.4631H31.5185ZM39.9623 17.7688C39.8759 17.9069 39.7838 18.0106 39.6859 18.0797C39.5938 18.1487 39.4729 18.1833 39.3232 18.1833C39.1908 18.1833 39.0469 18.143 38.8915 18.0624C38.7418 17.976 38.5691 17.881 38.3733 17.7774C38.1833 17.6738 37.9646 17.5817 37.717 17.5011C37.4695 17.4147 37.1874 17.3715 36.8707 17.3715C36.3238 17.3715 35.915 17.4895 35.6445 17.7256C35.3796 17.9559 35.2472 18.2696 35.2472 18.6669C35.2472 18.9202 35.3278 19.1303 35.489 19.2973C35.6502 19.4642 35.8604 19.6082 36.1194 19.7291C36.3842 19.85 36.6836 19.9622 37.0175 20.0658C37.3572 20.1637 37.7026 20.276 38.0538 20.4026C38.405 20.5235 38.7475 20.6675 39.0814 20.8344C39.4211 21.0014 39.7205 21.2144 39.9796 21.4735C40.2444 21.7325 40.4574 22.0492 40.6186 22.4234C40.7798 22.7918 40.8604 23.238 40.8604 23.7619C40.8604 24.3434 40.7596 24.8874 40.5581 25.394C40.3566 25.9007 40.063 26.344 39.6773 26.7239C39.2973 27.0981 38.8253 27.3946 38.2611 27.6134C37.7026 27.8264 37.0665 27.9329 36.3526 27.9329C35.9611 27.9329 35.561 27.8926 35.1522 27.812C34.7492 27.7314 34.3578 27.6192 33.9778 27.4752C33.5978 27.3255 33.2409 27.15 32.907 26.9485C32.5731 26.747 32.2823 26.5224 32.0348 26.2749L32.8983 24.9104C32.9674 24.8126 33.0566 24.732 33.166 24.6686C33.2812 24.5996 33.405 24.565 33.5374 24.565C33.7101 24.565 33.8828 24.6197 34.0555 24.7291C34.234 24.8385 34.4326 24.9594 34.6514 25.0918C34.8759 25.2242 35.1321 25.3451 35.4199 25.4545C35.7078 25.5639 36.0475 25.6186 36.4389 25.6186C36.9686 25.6186 37.3802 25.5034 37.6738 25.2731C37.9674 25.0371 38.1143 24.6658 38.1143 24.1591C38.1143 23.8655 38.0337 23.6266 37.8725 23.4424C37.7113 23.2582 37.4982 23.1056 37.2334 22.9847C36.9743 22.8638 36.6779 22.7573 36.3439 22.6652C36.01 22.5731 35.6675 22.4723 35.3163 22.3629C34.9651 22.2478 34.6226 22.1096 34.2887 21.9484C33.9548 21.7815 33.6554 21.5656 33.3906 21.3007C33.1315 21.0302 32.9214 20.6962 32.7602 20.299C32.599 19.896 32.5184 19.4009 32.5184 18.8137C32.5184 18.3416 32.6134 17.881 32.8033 17.432C32.9933 16.9829 33.2725 16.5828 33.641 16.2316C34.0094 15.8804 34.4614 15.6012 34.9968 15.394C35.5322 15.181 36.1453 15.0744 36.8362 15.0744C37.2219 15.0744 37.5961 15.1061 37.9588 15.1694C38.3273 15.227 38.6756 15.3162 39.0037 15.4371C39.3319 15.5523 39.637 15.6933 39.9191 15.8603C40.207 16.0215 40.4631 16.2057 40.6877 16.413L39.9623 17.7688Z" fill="#36B37E"/>
<g clip-path="url(#clip0_0_94)">
<path d="M59.587 15.8609C59.4728 15.7761 59.4046 15.6405 59.4046 15.4983L59.4046 13.816C59.4046 13.4459 59.8268 13.2319 60.1253 13.4533L62.1411 14.9489C62.1994 14.9921 62.2778 14.9921 62.336 14.9489L64.3519 13.4533C64.6497 13.2324 65.0726 13.4453 65.0726 13.816L65.0726 15.4983C65.0726 15.6405 65.0044 15.7761 64.8901 15.8609L62.5077 17.6287C62.3467 17.7481 62.1305 17.7481 61.9695 17.6287L59.587 15.8609ZM59.5872 20.3489L61.9695 22.1163C62.1305 22.2358 62.3467 22.2358 62.5077 22.1163L64.89 20.3489C65.0044 20.264 65.0726 20.1284 65.0726 19.9862L65.0726 18.1439C65.0726 17.773 64.6496 17.5604 64.3519 17.7812L62.3362 19.2769C62.2778 19.3202 62.1994 19.3202 62.141 19.2769L60.1253 17.7812C59.8282 17.5608 59.4046 17.7722 59.4046 18.1439L59.4046 19.9862C59.4046 20.1284 59.4728 20.264 59.5872 20.3489Z" fill="#1E2939"/>
</g>
<g clip-path="url(#clip1_0_94)">
<path d="M70.3814 5.0664C70.2672 4.98168 70.199 4.84607 70.199 4.70384L70.199 3.02155C70.199 2.65145 70.6212 2.43746 70.9197 2.65885L72.9356 4.1544C72.9938 4.19765 73.0722 4.19765 73.1304 4.1544L75.1463 2.65885C75.4441 2.43794 75.867 2.65081 75.867 3.02154L75.867 4.70384C75.867 4.84607 75.7988 4.98168 75.6845 5.0664L73.3021 6.83419C73.1411 6.95364 72.9249 6.95364 72.7639 6.83419L70.3814 5.0664ZM70.3816 9.55443L72.7639 11.3218C72.9249 11.4413 73.1411 11.4413 73.3021 11.3218L75.6844 9.55443C75.7988 9.46958 75.867 9.33397 75.867 9.19174L75.867 7.34941C75.867 6.97855 75.444 6.7659 75.1463 6.98672L73.1306 8.48239C73.0722 8.52577 72.9938 8.52577 72.9354 8.48239L70.9197 6.98672C70.6226 6.76637 70.199 6.97769 70.199 7.34941L70.199 9.19174C70.199 9.33397 70.2672 9.46958 70.3816 9.55443Z" fill="#C8FEC7"/>
</g>
<g clip-path="url(#clip2_0_94)">
<path d="M7.22378 75.6842C7.13906 75.7984 7.00345 75.8666 6.86122 75.8666L5.17893 75.8666C4.80883 75.8666 4.59484 75.4444 4.81623 75.1459L6.31178 73.1301C6.35503 73.0718 6.35503 72.9934 6.31178 72.9352L4.81623 70.9193C4.59532 70.6215 4.80819 70.1987 5.17892 70.1987L6.86122 70.1987C7.00344 70.1987 7.13906 70.2668 7.22378 70.3811L8.99157 72.7636C9.11102 72.9245 9.11102 73.1408 8.99157 73.3017L7.22378 75.6842ZM11.7118 75.6841L13.4792 73.3017C13.5987 73.1408 13.5987 72.9245 13.4792 72.7636L11.7118 70.3812C11.627 70.2668 11.4913 70.1987 11.3491 70.1987L9.50679 70.1987C9.13593 70.1987 8.92328 70.6216 9.1441 70.9193L10.6398 72.9351C10.6831 72.9934 10.6831 73.0718 10.6398 73.1302L9.1441 75.1459C8.92375 75.443 9.13507 75.8666 9.50679 75.8666L11.3491 75.8666C11.4913 75.8666 11.627 75.7984 11.7118 75.6841Z" fill="#C8FEC7"/>
</g>
<g clip-path="url(#clip3_0_94)">
<path d="M18.0182 64.8897C17.9335 65.004 17.7979 65.0722 17.6557 65.0722L15.9734 65.0722C15.6033 65.0722 15.3893 64.65 15.6107 64.3515L17.1062 62.3356C17.1495 62.2774 17.1495 62.199 17.1062 62.1407L15.6107 60.1249C15.3898 59.827 15.6026 59.4042 15.9734 59.4042L17.6557 59.4042C17.7979 59.4042 17.9335 59.4724 18.0182 59.5866L19.786 61.9691C19.9055 62.13 19.9055 62.3463 19.786 62.5072L18.0182 64.8897ZM22.5062 64.8896L24.2736 62.5072C24.3931 62.3463 24.3931 62.1301 24.2736 61.9691L22.5062 59.5868C22.4214 59.4724 22.2858 59.4042 22.1436 59.4042L20.3012 59.4042C19.9304 59.4042 19.7177 59.8272 19.9385 60.1249L21.4342 62.1406C21.4776 62.199 21.4776 62.2774 21.4342 62.3358L19.9385 64.3515C19.7182 64.6486 19.9295 65.0722 20.3012 65.0722L22.1436 65.0722C22.2858 65.0722 22.4214 65.004 22.5062 64.8896Z" fill="#1E2939"/>
</g>
<defs>
<clipPath id="clip0_0_94">
<rect x="68.3448" y="16.9008" width="8.63564" height="8.63564" rx="2.15891" transform="rotate(135 68.3448 16.9008)" fill="white"/>
</clipPath>
<clipPath id="clip1_0_94">
<rect x="79.139" y="6.10628" width="8.63564" height="8.63564" rx="2.15891" transform="rotate(135 79.139 6.10628)" fill="white"/>
</clipPath>
<clipPath id="clip2_0_94">
<rect x="8.2637" y="66.9263" width="8.63564" height="8.63564" rx="2.15891" transform="rotate(45 8.2637 66.9263)" fill="white"/>
</clipPath>
<clipPath id="clip3_0_94">
<rect x="19.0579" y="56.1318" width="8.63564" height="8.63564" rx="2.15891" transform="rotate(45 19.0579 56.1318)" fill="white"/>
</clipPath>
</defs>
</svg>
